<svg width="24" height="24" viewBox="0 0 24 24" fill="none" xmlns="http://www.w3.org/2000/svg">
<g clip-path="url(#clip0_49_3107)">
<path d="M12 24C18.6048 24 24 18.5952 24 12C24 5.3952 18.5952 0 12 0C5.3952 0 0 5.4048 0 12C0 18.6048 5.4048 24 12 24Z" fill="white"/>
<path d="M15.3919 14.8551L18.7181 12.6939C18.8966 12.5774 19 12.3655 19 12.1324V7.81006C19 7.577 18.8872 7.36512 18.7181 7.24858L15.3919 5.0874C15.2134 4.97087 14.9973 4.97087 14.8188 5.0874L11.4926 7.24858C11.3141 7.36512 11.2107 7.577 11.2107 7.81006V15.5437L8.88054 17.0586L6.55034 15.5437V12.5138L8.88054 10.9989L10.4215 11.9947V9.96065L9.17181 9.14491C9.08725 9.09194 8.98389 9.06016 8.88993 9.06016C8.78658 9.06016 8.69262 9.09194 8.60805 9.14491L5.28188 11.3061C5.10336 11.4226 5 11.6345 5 11.8676V16.1899C5 16.423 5.11275 16.6349 5.28188 16.7514L8.60805 18.9126C8.78658 19.0291 9.00268 19.0291 9.18121 18.9126L12.5074 16.7514C12.6859 16.6349 12.7893 16.423 12.7893 16.1899V8.4563L12.8268 8.42452L15.1195 6.93076L17.4497 8.44571V11.4756L15.1195 12.9905L13.5879 11.9947V14.0288L14.8376 14.8445C15.0161 14.961 15.2322 14.961 15.4107 14.8445L15.3919 14.8551Z" fill="url(#paint0_linear_49_3107)"/>
</g>
<defs>
<linearGradient id="paint0_linear_49_3107" x1="2.43949" y1="6.13686" x2="16.8763" y2="14.9905" gradientUnits="userSpaceOnUse">
<stop stop-color="#A229C5"/>
<stop offset="1" stop-color="#7B3FE4"/>
</linearGradient>
<clipPath id="clip0_49_3107">
<rect width="24" height="24" fill="white"/>
</clipPath>
</defs>
</svg>
