<svg width="24" height="24" viewBox="0 0 24 24" fill="none" xmlns="http://www.w3.org/2000/svg">
<g clip-path="url(#clip0_50_3117)">
<path d="M12 24C18.6048 24 24 18.5952 24 12C24 5.3952 18.5952 0 12 0C5.3952 0 0 5.4048 0 12C0 18.6048 5.4048 24 12 24Z" fill="#07C166"/>
<g clip-path="url(#clip1_50_3117)">
<path fill-rule="evenodd" clip-rule="evenodd" d="M16.2667 4.51158C16.5664 4.54631 16.7562 4.8502 16.6561 5.13473L15.1909 9.29824C15.0601 9.66996 14.5575 9.72552 14.3486 9.39132L14.036 8.89088L8.38133 12.4243L7.79977 11.4936C6.87091 10.0071 7.32295 8.04908 8.80945 7.12022L11.7725 5.26867L11.4294 4.71956C11.2206 4.38536 11.4908 3.95795 11.8823 4.00333L16.2667 4.51158ZM10.3384 14.1653C8.29553 15.3448 7.59556 17.957 8.77505 20L14.5286 16.6781C16.0466 15.8017 16.5667 13.8606 15.6903 12.3426L15.1416 11.3922L10.3384 14.1653Z" fill="white"/>
</g>
</g>
<defs>
<clipPath id="clip0_50_3117">
<rect width="24" height="24" fill="white"/>
</clipPath>
<clipPath id="clip1_50_3117">
<rect width="16" height="16" fill="white" transform="translate(4 4)"/>
</clipPath>
</defs>
</svg>
